<svg xmlns="http://www.w3.org/2000/svg" viewBox="0 0 106.2 106"><defs><style>.cls-1{fill:none;}.cls-1,.cls-2,.cls-3{stroke:#cacaca;}.cls-1,.cls-3{stroke-linecap:round;stroke-linejoin:round;stroke-width:6px;}.cls-2{fill:#cacaca;stroke-miterlimit:10;}.cls-3{fill:#fff;}</style></defs><g id="Layer_2" data-name="Layer 2"><g id="Layer_1-2" data-name="Layer 1"><rect class="cls-1" x="3.2" y="3" width="100" height="100"/><path class="cls-2" d="M14.77,54.77h2.07l4.89,14.44H19.78l-2.52-8.06c-.52-1.62-1-3.2-1.44-4.87h-.09c-.45,1.68-.91,3.25-1.43,4.87l-2.54,8.06H9.88Zm-2.32,8.58H19.1v1.46H12.45Z"/><path class="cls-2" d="M26.73,68.11h-.06l-.17,1.1H25.05V53.54h1.81v4.28l-.06,1.92a5.43,5.43,0,0,1,3.36-1.49c2.76,0,4.25,2.15,4.25,5.44,0,3.66-2.19,5.79-4.63,5.79A4.79,4.79,0,0,1,26.73,68.11Zm5.81-4.39c0-2.36-.81-3.94-2.82-3.94a4.32,4.32,0,0,0-2.86,1.45v5.61A4.14,4.14,0,0,0,29.47,68C31.24,68,32.54,66.36,32.54,63.72Z"/><path class="cls-2" d="M37.53,68l.89-1.19a4.81,4.81,0,0,0,3.16,1.27c1.4,0,2.1-.75,2.1-1.66,0-1.11-1.26-1.59-2.45-2-1.5-.55-3.19-1.29-3.19-3.09s1.37-3,3.69-3a5.48,5.48,0,0,1,3.33,1.2l-.87,1.16a4,4,0,0,0-2.44-1c-1.34,0-2,.72-2,1.54,0,1,1.17,1.4,2.38,1.85,1.54.58,3.26,1.21,3.26,3.25,0,1.73-1.38,3.18-3.9,3.18A6.42,6.42,0,0,1,37.53,68Z"/><path class="cls-2" d="M49.35,65.91V60H47.76V58.62l1.67-.1.22-3h1.51v3h2.9V60h-2.9v5.95c0,1.3.42,2.06,1.65,2.06A3.46,3.46,0,0,0,54,67.71l.35,1.37a6.58,6.58,0,0,1-2,.4C50.12,69.48,49.35,68,49.35,65.91Z"/><path class="cls-2" d="M58,58.52H59.5l.16,1.94h.06a3.68,3.68,0,0,1,3-2.21,2.5,2.5,0,0,1,1.14.22l-.34,1.59a2.91,2.91,0,0,0-1-.18c-.9,0-2,.66-2.7,2.46v6.87H58Z"/><path class="cls-2" d="M66,66.44c0-2.33,2-3.5,6.57-4,0-1.37-.46-2.7-2.21-2.7a5.9,5.9,0,0,0-3.19,1.15l-.71-1.24a7.85,7.85,0,0,1,4.2-1.4c2.62,0,3.72,1.74,3.72,4.4v6.56h-1.5l-.15-1.28h-.06a5.68,5.68,0,0,1-3.54,1.55A2.91,2.91,0,0,1,66,66.44Zm6.57.16v-3c-3.58.43-4.8,1.31-4.8,2.68,0,1.21.83,1.71,1.88,1.71A4.43,4.43,0,0,0,72.56,66.6Z"/><path class="cls-2" d="M78.49,63.88c0-3.57,2.41-5.63,5.14-5.63a4.46,4.46,0,0,1,3.13,1.26l-.92,1.19a3.14,3.14,0,0,0-2.13-.94c-1.93,0-3.35,1.67-3.35,4.12S81.7,68,83.67,68a3.88,3.88,0,0,0,2.51-1.07L87,68.12a5.22,5.22,0,0,1-3.46,1.36C80.66,69.48,78.49,67.42,78.49,63.88Z"/><path class="cls-2" d="M91,65.91V60H89.36V58.62l1.67-.1.22-3h1.51v3h2.9V60h-2.9v5.95c0,1.3.42,2.06,1.65,2.06a3.46,3.46,0,0,0,1.22-.29L96,69.08a6.52,6.52,0,0,1-2,.4C91.72,69.48,91,68,91,65.91Z"/><path class="cls-2" d="M27.25,88.4c0-4.65,2.75-7.49,6.41-7.49a5.37,5.37,0,0,1,4,1.78l-1,1.19a3.94,3.94,0,0,0-2.94-1.36c-2.73,0-4.54,2.24-4.54,5.84s1.73,5.9,4.47,5.9A4.34,4.34,0,0,0,37,92.64l1,1.15a5.56,5.56,0,0,1-4.43,2.09C30,95.88,27.25,93.09,27.25,88.4Z"/><path class="cls-2" d="M42,93.46V79.94h1.81V93.6c0,.55.25.77.51.77a1.79,1.79,0,0,0,.4,0L45,95.71a3,3,0,0,1-1,.17C42.58,95.88,42,95,42,93.46Z"/><path class="cls-2" d="M48.51,92.84c0-2.33,2-3.5,6.57-4,0-1.37-.46-2.7-2.21-2.7a5.93,5.93,0,0,0-3.19,1.15L49,86.05a7.79,7.79,0,0,1,4.2-1.4c2.61,0,3.71,1.74,3.71,4.4v6.56H55.4l-.16-1.28h-.06a5.68,5.68,0,0,1-3.53,1.55A2.92,2.92,0,0,1,48.51,92.84Zm6.57.16V90c-3.58.43-4.8,1.31-4.8,2.68,0,1.21.83,1.71,1.88,1.71A4.37,4.37,0,0,0,55.08,93Z"/><path class="cls-2" d="M60.62,94.39l.89-1.19a4.81,4.81,0,0,0,3.16,1.27c1.4,0,2.1-.75,2.1-1.66,0-1.1-1.26-1.59-2.45-2-1.5-.55-3.19-1.29-3.19-3.09s1.37-3,3.69-3a5.48,5.48,0,0,1,3.33,1.2L67.28,87a4,4,0,0,0-2.44-1c-1.34,0-2,.72-2,1.54,0,1,1.17,1.4,2.38,1.85,1.54.58,3.26,1.21,3.26,3.25,0,1.73-1.38,3.18-3.9,3.18A6.42,6.42,0,0,1,60.62,94.39Z"/><path class="cls-2" d="M71.37,94.39l.9-1.19a4.81,4.81,0,0,0,3.15,1.27c1.41,0,2.11-.75,2.11-1.66,0-1.1-1.27-1.59-2.45-2-1.5-.55-3.19-1.29-3.19-3.09s1.37-3,3.69-3a5.43,5.43,0,0,1,3.32,1.2L78,87a4.05,4.05,0,0,0-2.44-1c-1.35,0-2,.72-2,1.54,0,1,1.16,1.4,2.38,1.85,1.54.58,3.26,1.21,3.26,3.25,0,1.73-1.38,3.18-3.91,3.18A6.44,6.44,0,0,1,71.37,94.39Z"/><rect class="cls-3" x="3" y="21.33" width="100"/><rect class="cls-3" x="4.97" y="35.69" width="96.57"/></g></g></svg>