<svg xmlns="http://www.w3.org/2000/svg" viewBox="0 0 120.94 77.74"><defs><style>.cls-1{fill:#fff;}.cls-1,.cls-2,.cls-3{stroke:#cacaca;}.cls-1,.cls-3{stroke-linecap:round;stroke-linejoin:round;stroke-width:6px;}.cls-2{fill:#44475b;stroke-miterlimit:10;stroke-width:2px;}.cls-3{fill:none;}</style></defs><g id="Layer_2" data-name="Layer 2"><g id="Layer_1-2" data-name="Layer 1"><polyline class="cls-1" points="117.94 35.1 3 35.1 3 35.1"/><path class="cls-2" d="M35.6,51.59h3.73c2.55,0,4.32.91,4.32,3.22a2.87,2.87,0,0,1-1.84,2.85v.08a3,3,0,0,1,2.56,3.14c0,2.58-2,3.84-4.76,3.84h-4Zm3.46,5.59c2.13,0,3-.82,3-2.15,0-1.54-1-2.11-2.95-2.11H37.2v4.26Zm.32,6.22c2.15,0,3.42-.81,3.42-2.58,0-1.62-1.22-2.36-3.42-2.36H37.2V63.4Z"/><path class="cls-2" d="M55.69,58.11c0-4.2,2.21-6.76,5.37-6.76s5.36,2.56,5.36,6.76S64.21,65,61.06,65,55.69,62.32,55.69,58.11Zm9.08,0c0-3.27-1.47-5.29-3.71-5.29s-3.72,2-3.72,5.29,1.47,5.38,3.72,5.38S64.77,61.38,64.77,58.11Z"/><path class="cls-2" d="M80.6,57.94l-3.42-6.35h1.76L80.65,55c.32.6.59,1.15,1,1.91h.08c.34-.76.58-1.31.88-1.91l1.67-3.36H86L82.53,58l3.66,6.69H84.42l-1.84-3.53c-.33-.66-.67-1.31-1.07-2.11h-.08c-.36.8-.68,1.45-1,2.11l-1.81,3.53H76.94Z"/><rect class="cls-1" x="3.97" y="20.7" width="113.97"/><rect class="cls-3" x="3" y="3" width="114.94" height="71.74"/></g></g></svg>