<svg xmlns="http://www.w3.org/2000/svg" viewBox="0 0 106.2 106"><defs><style>.cls-1{fill:#cacaca;stroke-miterlimit:10;}.cls-1,.cls-2,.cls-3{stroke:#cacaca;}.cls-2{fill:none;}.cls-2,.cls-3{stroke-linecap:round;stroke-linejoin:round;stroke-width:6px;}.cls-3{fill:#fff;}</style></defs><g id="Layer_2" data-name="Layer 2"><g id="Layer_1-2" data-name="Layer 1"><path class="cls-1" d="M23.53,87.42c0-4.66,2.75-7.5,6.41-7.5a5.37,5.37,0,0,1,4,1.78l-1,1.2A3.94,3.94,0,0,0,30,81.54c-2.73,0-4.54,2.23-4.54,5.83s1.73,5.91,4.47,5.91a4.31,4.31,0,0,0,3.35-1.63l1,1.16a5.57,5.57,0,0,1-4.43,2.08C26.23,94.89,23.53,92.11,23.53,87.42Z"/><path class="cls-1" d="M40.06,92.48V79h1.81V92.61c0,.55.24.77.51.77a1.67,1.67,0,0,0,.39,0L43,94.72a3,3,0,0,1-1,.17C40.62,94.89,40.06,94,40.06,92.48Z"/><path class="cls-1" d="M48.31,91.85c0-2.33,2-3.49,6.57-4,0-1.38-.46-2.7-2.21-2.7a5.82,5.82,0,0,0-3.19,1.15l-.71-1.25A7.93,7.93,0,0,1,53,83.67c2.62,0,3.72,1.73,3.72,4.4v6.56h-1.5L55,93.35H55a5.67,5.67,0,0,1-3.54,1.54A2.9,2.9,0,0,1,48.31,91.85Zm6.57.17v-3c-3.58.43-4.8,1.31-4.8,2.67s.83,1.71,1.88,1.71A4.42,4.42,0,0,0,54.88,92Z"/><path class="cls-1" d="M62.17,93.41l.9-1.19a4.85,4.85,0,0,0,3.16,1.26c1.4,0,2.1-.75,2.1-1.66,0-1.1-1.27-1.59-2.45-2-1.5-.54-3.19-1.28-3.19-3.09s1.37-3,3.69-3a5.42,5.42,0,0,1,3.33,1.2L68.84,86a4,4,0,0,0-2.44-1c-1.35,0-2,.72-2,1.53,0,1,1.16,1.41,2.38,1.86,1.54.58,3.26,1.21,3.26,3.24,0,1.74-1.38,3.18-3.9,3.18A6.46,6.46,0,0,1,62.17,93.41Z"/><path class="cls-1" d="M74.69,93.41l.9-1.19a4.85,4.85,0,0,0,3.15,1.26c1.41,0,2.1-.75,2.1-1.66,0-1.1-1.26-1.59-2.44-2-1.5-.54-3.19-1.28-3.19-3.09s1.37-3,3.69-3a5.39,5.39,0,0,1,3.32,1.2L81.36,86a4,4,0,0,0-2.44-1c-1.35,0-2,.72-2,1.53,0,1,1.16,1.41,2.37,1.86,1.55.58,3.27,1.21,3.27,3.24,0,1.74-1.38,3.18-3.91,3.18A6.43,6.43,0,0,1,74.69,93.41Z"/><rect class="cls-2" x="3.2" y="3" width="100" height="100"/><rect class="cls-3" x="3" y="20.62" width="100"/><rect class="cls-3" x="4.97" y="34.98" width="96.57"/></g></g></svg>