<svg xmlns="http://www.w3.org/2000/svg" viewBox="0 0 106.2 106"><defs><style>.cls-1{fill:#cacaca;stroke-miterlimit:10;}.cls-1,.cls-2,.cls-3{stroke:#cacaca;}.cls-2{fill:none;}.cls-2,.cls-3{stroke-linecap:round;stroke-linejoin:round;stroke-width:6px;}.cls-3{fill:#fff;}</style></defs><g id="Layer_2" data-name="Layer 2"><g id="Layer_1-2" data-name="Layer 1"><path class="cls-1" d="M25.85,80.19h8.33v1.55H27.69v4.53h5.47v1.55H27.69v5.25H34.4v1.56H25.85Z"/><path class="cls-1" d="M38.82,83.93h1.49l.16,1.54h.06a5.11,5.11,0,0,1,3.59-1.8c2.25,0,3.26,1.45,3.26,4.18v6.78H45.57V88.08c0-2-.6-2.84-2-2.84-1.09,0-1.85.56-2.92,1.64v7.75H38.82Z"/><path class="cls-1" d="M52.25,90.71V83.93h1.81v6.55c0,2,.6,2.84,2,2.84,1.09,0,1.85-.54,2.86-1.8V83.93h1.81v10.7H59.26L59.1,93H59a4.54,4.54,0,0,1-3.53,1.94C53.26,94.89,52.25,93.44,52.25,90.71Z"/><path class="cls-1" d="M65.9,83.93h1.5l.15,1.55h.06a4.75,4.75,0,0,1,3.33-1.81,2.82,2.82,0,0,1,3,2c1.11-1.21,2.23-2,3.53-2,2.2,0,3.25,1.45,3.25,4.18v6.78H78.86V88.08c0-2-.63-2.84-2-2.84a3.91,3.91,0,0,0-2.68,1.64v7.75H72.38V88.08c0-2-.63-2.84-2-2.84a4,4,0,0,0-2.68,1.64v7.75H65.9Z"/><rect class="cls-2" x="3.2" y="3" width="100" height="100"/><rect class="cls-3" x="3" y="20.62" width="100"/><rect class="cls-3" x="4.97" y="34.98" width="96.57"/></g></g></svg>