<svg xmlns="http://www.w3.org/2000/svg" viewBox="0 0 106.2 106"><defs><style>.cls-1{fill:#cacaca;stroke-miterlimit:10;}.cls-1,.cls-2,.cls-3{stroke:#cacaca;}.cls-2{fill:none;}.cls-2,.cls-3{stroke-linecap:round;stroke-linejoin:round;stroke-width:6px;}.cls-3{fill:#fff;}</style></defs><g id="Layer_2" data-name="Layer 2"><g id="Layer_1-2" data-name="Layer 1"><path class="cls-1" d="M8.48,80.19h1.84V94.63H8.48Z"/><path class="cls-1" d="M15.63,83.93h1.5l.15,1.54h.06a5.11,5.11,0,0,1,3.59-1.8c2.25,0,3.27,1.45,3.27,4.18v6.78H22.39V88.08c0-2-.61-2.84-2-2.84-1.09,0-1.85.56-2.93,1.64v7.75H15.63Z"/><path class="cls-1" d="M29.53,91.32V85.41H27.94V84l1.67-.11.21-3h1.52v3h2.89v1.48H31.34v5.94c0,1.31.42,2.07,1.65,2.07a3.69,3.69,0,0,0,1.22-.29l.35,1.37a6.57,6.57,0,0,1-2,.39C30.3,94.89,29.53,93.45,29.53,91.32Z"/><path class="cls-1" d="M37.08,89.29c0-3.48,2.35-5.62,4.81-5.62,2.73,0,4.27,2,4.27,5a5,5,0,0,1-.09,1h-7.2c.13,2.27,1.52,3.74,3.56,3.74a4.64,4.64,0,0,0,2.66-.86l.65,1.19a6.26,6.26,0,0,1-3.54,1.11C39.35,94.89,37.08,92.81,37.08,89.29Zm7.48-.87c0-2.14-1-3.31-2.64-3.31-1.5,0-2.84,1.21-3.06,3.31Z"/><path class="cls-1" d="M50.33,83.93h1.49L52,85.88H52a3.67,3.67,0,0,1,3-2.21,2.5,2.5,0,0,1,1.14.22l-.34,1.59a2.91,2.91,0,0,0-1-.18c-.9,0-2,.65-2.7,2.46v6.87H50.33Z"/><path class="cls-1" d="M58.35,84l1.53-.11h4v1.48H58.35Zm1.45-1.8c0-2.17,1-3.55,3.13-3.55a4.58,4.58,0,0,1,1.78.37l-.38,1.38a2.91,2.91,0,0,0-1.21-.28c-1,0-1.51.71-1.51,2.09V94.63H59.8Z"/><path class="cls-1" d="M66.36,91.85c0-2.33,2-3.49,6.57-4,0-1.38-.46-2.7-2.2-2.7a5.87,5.87,0,0,0-3.19,1.15l-.71-1.25A7.87,7.87,0,0,1,71,83.67c2.61,0,3.71,1.73,3.71,4.4v6.56H73.25l-.15-1.28H73a5.62,5.62,0,0,1-3.53,1.54A2.91,2.91,0,0,1,66.36,91.85Zm6.57.17v-3c-3.58.43-4.79,1.31-4.79,2.67S69,93.43,70,93.43A4.38,4.38,0,0,0,72.93,92Z"/><path class="cls-1" d="M78.86,89.29c0-3.57,2.41-5.62,5.15-5.62a4.5,4.5,0,0,1,3.12,1.25l-.92,1.2a3.11,3.11,0,0,0-2.12-1c-1.94,0-3.36,1.67-3.36,4.12s1.34,4.09,3.31,4.09a3.85,3.85,0,0,0,2.51-1.06l.78,1.21a5.17,5.17,0,0,1-3.45,1.36C81,94.89,78.86,92.83,78.86,89.29Z"/><path class="cls-1" d="M90,89.29c0-3.48,2.35-5.62,4.81-5.62,2.73,0,4.27,2,4.27,5a5.76,5.76,0,0,1-.09,1h-7.2c.13,2.27,1.51,3.74,3.55,3.74A4.61,4.61,0,0,0,98,92.59l.65,1.19a6.22,6.22,0,0,1-3.53,1.11C92.24,94.89,90,92.81,90,89.29Zm7.48-.87c0-2.14-1-3.31-2.64-3.31-1.5,0-2.85,1.21-3.07,3.31Z"/><rect class="cls-2" x="3.2" y="3" width="100" height="100"/><rect class="cls-3" x="3" y="20.62" width="100"/><rect class="cls-3" x="4.97" y="34.98" width="96.57"/></g></g></svg>