<svg xmlns="http://www.w3.org/2000/svg" viewBox="0 0 103.25 119.16"><defs><style>.cls-1{fill:none;stroke-linecap:round;stroke-linejoin:round;stroke-width:6px;}.cls-1,.cls-2{stroke:#cacaca;}.cls-2{fill:#44475b;stroke-miterlimit:10;stroke-width:2px;}</style></defs><g id="Layer_2" data-name="Layer 2"><g id="Layer_1-2" data-name="Layer 1"><polygon class="cls-1" points="100.25 32.05 100.25 116.16 3 116.16 3 3 64.62 3 100.25 32.05"/><path class="cls-2" d="M30.34,93.06H26.26V91.65h9.87v1.41H32.05v11.72H30.34Z"/><path class="cls-2" d="M50.78,98l-3.66-6.34H49L50.84,95c.34.6.63,1.14,1,1.9H52c.37-.76.63-1.3,1-1.9l1.79-3.36h1.8l-3.66,6.43,3.92,6.7H54.89l-2-3.54c-.35-.65-.72-1.31-1.15-2.11h-.08c-.39.8-.73,1.46-1.07,2.11l-1.94,3.54H46.86Z"/><path class="cls-2" d="M71.58,93.06H67.51V91.65h9.86v1.41H73.3v11.72H71.58Z"/><path class="cls-1" d="M64.62,3l35.63,29.05-35,1.7a.15.15,0,0,1-.17-.16Z"/></g></g></svg>